<svg width="349" height="226" viewBox="0 0 349 226" fill="none" xmlns="http://www.w3.org/2000/svg">
<ellipse cx="137.587" cy="80.3107" rx="94.8005" ry="80.3107" fill="white"/>
<ellipse cx="208.058" cy="80.3107" rx="94.8005" ry="80.3107" fill="white"/>
<ellipse cx="254.2" cy="104.525" rx="94.8005" ry="80.3107" fill="white"/>
<ellipse cx="171.144" cy="130.354" rx="94.8005" ry="80.3107" fill="white"/>
<ellipse cx="91.4447" cy="205.418" rx="15.101" ry="13.3179" fill="white"/>
<ellipse cx="63.3401" cy="218.332" rx="7.96995" ry="7.66786" fill="white"/>
<ellipse cx="94.8005" cy="104.525" rx="94.8005" ry="80.3107" fill="white"/>
<ellipse cx="165" cy="108.5" rx="88" ry="81.5" fill="#C89352"/>
<ellipse cx="253" cy="50" rx="53" ry="50" fill="white"/>
<circle cx="224.5" cy="19.5" r="7.5" fill="#C89352"/>
<circle cx="227.5" cy="48.5" r="4.5" fill="#C89352"/>
<ellipse cx="258.5" cy="36" rx="5.5" ry="5" fill="#C89352"/>
<ellipse cx="285" cy="100" rx="53" ry="50" fill="white"/>
<ellipse cx="117" cy="66" rx="8" ry="7" fill="#825205" fill-opacity="0.76"/>
<circle cx="147.5" cy="90.5" r="12.5" fill="#825205" fill-opacity="0.76"/>
<circle cx="198" cy="139" r="11" fill="#825205" fill-opacity="0.76"/>
<ellipse cx="143.5" cy="55" rx="4.5" ry="4" fill="#825205" fill-opacity="0.76"/>
<circle cx="191.5" cy="166.5" r="4.5" fill="#825205" fill-opacity="0.76"/>
</svg>
